<svg xmlns="http://www.w3.org/2000/svg" width="542.452" height="548.008" viewBox="0 0 143.524 144.994"><g transform="translate(-19.778 -34.541)"><circle r="2.673" cy="38.283" cx="23.787"/><circle cx="69.045" cy="38.283" r="2.673"/><circle r="2.673" cy="38.283" cx="159.56"/><circle r="2.673" cy="38.283" cx="114.302"/></g><g transform="translate(-19.778 11.429)"><circle cx="23.787" cy="38.283" r="2.673"/><circle r="2.673" cy="38.283" cx="69.045"/><circle cx="159.56" cy="38.283" r="2.673"/><circle cx="114.302" cy="38.283" r="2.673"/></g><g transform="translate(-19.778 57.4)"><circle r="2.673" cy="38.283" cx="23.787"/><circle cx="69.045" cy="38.283" r="2.673"/><circle r="2.673" cy="38.283" cx="159.56"/><circle r="2.673" cy="38.283" cx="114.302"/></g><g transform="translate(-19.778 103.37)"><circle cx="23.787" cy="38.283" r="2.673"/><circle r="2.673" cy="38.283" cx="69.045"/><circle cx="159.56" cy="38.283" r="2.673"/><circle cx="114.302" cy="38.283" r="2.673"/></g><path d="M3.742 141.653h136.04L94.346 95.415H3.742m0 0V3.742m0 0h45.436l90.604 91.94V3.475H94.613" fill="none" stroke="#000"/><path fill="#e0e0e0" d="M0 22.45h7.216v7.216H0z"/><text y="209.87" x="58.799" style="line-height:1.25" font-weight="400" font-size="6.35" font-family="sans-serif" letter-spacing="0" word-spacing="0" stroke-width=".265" transform="translate(-57.463 -181.807)"><tspan y="209.87" x="58.799">1</tspan></text><path fill="#e0e0e0" d="M0 68.02h7.216v7.216H0z"/><text style="line-height:1.25" x="58.799" y="209.87" font-weight="400" font-size="6.35" font-family="sans-serif" letter-spacing="0" word-spacing="0" stroke-width=".265" transform="translate(-57.463 -136.237)"><tspan x="58.799" y="209.87">1</tspan></text><path fill="#e0e0e0" d="M21.783 0h7.216v7.216h-7.216z"/><text style="line-height:1.25" x="58.799" y="209.87" font-weight="400" font-size="6.35" font-family="sans-serif" letter-spacing="0" word-spacing="0" stroke-width=".265" transform="translate(-35.68 -204.257)"><tspan x="58.799" y="209.87">2</tspan></text><path fill="#e0e0e0" d="M67.887 22.45h7.216v7.216h-7.216z"/><text y="209.87" x="58.799" style="line-height:1.25" font-weight="400" font-size="6.35" font-family="sans-serif" letter-spacing="0" word-spacing="0" stroke-width=".265" transform="translate(10.424 -181.807)"><tspan y="209.87" x="58.799">3</tspan></text><g opacity=".98"><path fill="#e0e0e0" d="M112.12 68.02h7.216v7.216h-7.216z"/><text style="line-height:1.25" x="58.799" y="209.87" font-weight="400" font-size="6.35" font-family="sans-serif" letter-spacing="0" word-spacing="0" stroke-width=".265" transform="translate(54.657 -136.237)"><tspan x="58.799" y="209.87">3</tspan></text></g><path fill="#e0e0e0" d="M136.308 68.02h7.216v7.216h-7.216z"/><text y="209.87" x="58.799" style="line-height:1.25" font-weight="400" font-size="6.35" font-family="sans-serif" letter-spacing="0" word-spacing="0" stroke-width=".265" transform="translate(78.845 -136.237)"><tspan y="209.87" x="58.799">5</tspan></text><path fill="#e0e0e0" d="M136.308 22.45h7.216v7.216h-7.216z"/><text style="line-height:1.25" x="58.799" y="209.87" font-weight="400" font-size="6.35" font-family="sans-serif" letter-spacing="0" word-spacing="0" stroke-width=".265" transform="translate(78.845 -181.807)"><tspan x="58.799" y="209.87">8</tspan></text><g opacity=".98"><path fill="#e0e0e0" d="M112.12 0h7.216v7.216h-7.216z"/><text y="209.87" x="58.799" style="line-height:1.25" font-weight="400" font-size="6.35" font-family="sans-serif" letter-spacing="0" word-spacing="0" stroke-width=".265" transform="translate(54.657 -204.257)"><tspan y="209.87" x="58.799">9</tspan></text></g><path fill="#e0e0e0" d="M21.783 91.54h7.216v7.215h-7.216z"/><text style="line-height:1.25" x="58.799" y="209.87" font-weight="400" font-size="6.35" font-family="sans-serif" letter-spacing="0" word-spacing="0" stroke-width=".265" transform="translate(-35.68 -112.718)"><tspan x="58.799" y="209.87">4</tspan></text><path fill="#e0e0e0" d="M67.887 91.54h7.216v7.215h-7.216z"/><text y="209.87" x="58.799" style="line-height:1.25" font-weight="400" font-size="6.35" font-family="sans-serif" letter-spacing="0" word-spacing="0" stroke-width=".265" transform="translate(10.424 -112.718)"><tspan y="209.87" x="58.799">4</tspan></text><g opacity=".98"><path fill="#e0e0e0" d="M112.12 112.787h7.216v7.216h-7.216z"/><text style="line-height:1.25" x="58.799" y="209.87" font-weight="400" font-size="6.35" font-family="sans-serif" letter-spacing="0" word-spacing="0" stroke-width=".265" transform="translate(54.657 -91.47)"><tspan x="58.799" y="209.87">6</tspan></text></g><g opacity=".98"><path fill="#e0e0e0" d="M112.12 137.777h7.216v7.216h-7.216z"/><text y="209.87" x="58.799" style="line-height:1.25" font-weight="400" font-size="6.35" font-family="sans-serif" letter-spacing="0" word-spacing="0" stroke-width=".265" transform="translate(54.657 -66.48)"><tspan y="209.87" x="58.799">7</tspan></text></g><path fill="#e0e0e0" d="M67.887 137.777h7.216v7.216h-7.216z"/><text style="line-height:1.25" x="58.799" y="209.87" font-weight="400" font-size="6.35" font-family="sans-serif" letter-spacing="0" word-spacing="0" stroke-width=".265" transform="translate(10.424 -66.48)"><tspan x="58.799" y="209.87">7</tspan></text><path fill="#e0e0e0" d="M21.783 137.777h7.216v7.216h-7.216z"/><text y="209.87" x="58.799" style="line-height:1.25" font-weight="400" font-size="6.35" font-family="sans-serif" letter-spacing="0" word-spacing="0" stroke-width=".265" transform="translate(-35.68 -66.48)"><tspan y="209.87" x="58.799">7</tspan></text></svg>